<svg xmlns="http://www.w3.org/2000/svg" xmlns:xlink="http://www.w3.org/1999/xlink" width="153" zoomAndPan="magnify" viewBox="0 0 114.75 54" height="72" preserveAspectRatio="xMidYMid meet" version="1.0"><defs><clipPath id="c7e29d439f"><path d="M 2 1 L 76 1 L 76 42 L 2 42 Z M 2 1 " clip-rule="nonzero"/></clipPath><clipPath id="4b60d9e735"><path d="M 12.414062 29.996094 L 13.664062 31.664062 L 5.773438 31.664062 L 2.441406 27.222656 L 10.332031 27.222656 Z M 23.066406 37.496094 L 15.175781 37.496094 L 18.507812 41.9375 L 26.398438 41.9375 L 25.148438 40.269531 Z M 70.03125 14.609375 C 68.15625 6.847656 61.128906 1.203125 52.988281 1.203125 C 46.769531 1.203125 41.105469 4.4375 37.945312 9.726562 C 35.796875 10.101562 33.789062 10.992188 32.070312 12.320312 L 41.578125 12.320312 C 43.902344 8.1875 48.222656 5.644531 52.988281 5.644531 C 59.496094 5.644531 65.046875 10.476562 65.949219 16.902344 L 75.203125 16.902344 C 73.75 15.710938 71.976562 14.894531 70.03125 14.609375 Z M 48.355469 17.136719 C 48.46875 17.070312 48.582031 17.007812 48.695312 16.949219 L 28.851562 16.949219 L 32.179688 21.390625 L 43.699219 21.390625 C 44.921875 19.648438 46.484375 18.21875 48.355469 17.136719 Z M 26.398438 21.390625 L 25.148438 19.726562 L 23.066406 16.949219 L 15.175781 16.949219 L 18.507812 21.390625 Z M 43.023438 37.496094 L 28.847656 37.496094 L 32.179688 41.9375 L 47.011719 41.9375 C 45.390625 40.742188 44.050781 39.253906 43.023438 37.496094 Z M 41.257812 27.222656 L 16.117188 27.222656 L 19.449219 31.664062 L 41.105469 31.664062 C 41.046875 31.105469 41.015625 30.542969 41.015625 29.96875 C 41.015625 29.03125 41.097656 28.113281 41.257812 27.222656 Z M 41.257812 27.222656 " clip-rule="nonzero"/></clipPath><linearGradient x1="89.999997" gradientTransform="matrix(0.434659, 0, 0, 0.434659, -36.678275, -67.716284)" y1="205.41499" x2="257.400382" gradientUnits="userSpaceOnUse" y2="205.41499" id="9bc520ca41"><stop stop-opacity="1" stop-color="rgb(10.598755%, 20.399475%, 27.799988%)" offset="0"/><stop stop-opacity="1" stop-color="rgb(10.557556%, 20.527649%, 27.963257%)" offset="0.0078125"/><stop stop-opacity="1" stop-color="rgb(10.475159%, 20.783997%, 28.291321%)" offset="0.015625"/><stop stop-opacity="1" stop-color="rgb(10.391235%, 21.04187%, 28.619385%)" offset="0.0234375"/><stop stop-opacity="1" stop-color="rgb(10.308838%, 21.298218%, 28.947449%)" offset="0.03125"/><stop stop-opacity="1" stop-color="rgb(10.22644%, 21.556091%, 29.275513%)" offset="0.0390625"/><stop stop-opacity="1" stop-color="rgb(10.144043%, 21.812439%, 29.603577%)" offset="0.046875"/><stop stop-opacity="1" stop-color="rgb(10.06012%, 22.070312%, 29.931641%)" offset="0.0546875"/><stop stop-opacity="1" stop-color="rgb(9.977722%, 22.32666%, 30.259705%)" offset="0.0625"/><stop stop-opacity="1" stop-color="rgb(9.895325%, 22.583008%, 30.587769%)" offset="0.0703125"/><stop stop-opacity="1" stop-color="rgb(9.812927%, 22.840881%, 30.915833%)" offset="0.078125"/><stop stop-opacity="1" stop-color="rgb(9.729004%, 23.097229%, 31.243896%)" offset="0.0859375"/><stop stop-opacity="1" stop-color="rgb(9.646606%, 23.355103%, 31.57196%)" offset="0.09375"/><stop stop-opacity="1" stop-color="rgb(9.564209%, 23.61145%, 31.900024%)" offset="0.101562"/><stop stop-opacity="1" stop-color="rgb(9.481812%, 23.869324%, 32.228088%)" offset="0.109375"/><stop stop-opacity="1" stop-color="rgb(9.397888%, 24.125671%, 32.556152%)" offset="0.117187"/><stop stop-opacity="1" stop-color="rgb(9.315491%, 24.383545%, 32.884216%)" offset="0.125"/><stop stop-opacity="1" stop-color="rgb(9.233093%, 24.639893%, 33.21228%)" offset="0.132812"/><stop stop-opacity="1" stop-color="rgb(9.14917%, 24.89624%, 33.540344%)" offset="0.140625"/><stop stop-opacity="1" stop-color="rgb(9.066772%, 25.154114%, 33.868408%)" offset="0.148438"/><stop stop-opacity="1" stop-color="rgb(8.984375%, 25.410461%, 34.196472%)" offset="0.15625"/><stop stop-opacity="1" stop-color="rgb(8.901978%, 25.668335%, 34.524536%)" offset="0.164063"/><stop stop-opacity="1" stop-color="rgb(8.818054%, 25.924683%, 34.8526%)" offset="0.171875"/><stop stop-opacity="1" stop-color="rgb(8.735657%, 26.182556%, 35.180664%)" offset="0.179688"/><stop stop-opacity="1" stop-color="rgb(8.653259%, 26.438904%, 35.508728%)" offset="0.1875"/><stop stop-opacity="1" stop-color="rgb(8.570862%, 26.696777%, 35.838318%)" offset="0.195312"/><stop stop-opacity="1" stop-color="rgb(8.486938%, 26.953125%, 36.166382%)" offset="0.203125"/><stop stop-opacity="1" stop-color="rgb(8.404541%, 27.210999%, 36.494446%)" offset="0.210937"/><stop stop-opacity="1" stop-color="rgb(8.322144%, 27.467346%, 36.82251%)" offset="0.21875"/><stop stop-opacity="1" stop-color="rgb(8.23822%, 27.723694%, 37.150574%)" offset="0.226562"/><stop stop-opacity="1" stop-color="rgb(8.155823%, 27.981567%, 37.478638%)" offset="0.234375"/><stop stop-opacity="1" stop-color="rgb(8.073425%, 28.237915%, 37.806702%)" offset="0.242188"/><stop stop-opacity="1" stop-color="rgb(7.991028%, 28.495789%, 38.134766%)" offset="0.25"/><stop stop-opacity="1" stop-color="rgb(7.907104%, 28.752136%, 38.46283%)" offset="0.257812"/><stop stop-opacity="1" stop-color="rgb(7.824707%, 29.01001%, 38.790894%)" offset="0.265625"/><stop stop-opacity="1" stop-color="rgb(7.74231%, 29.266357%, 39.118958%)" offset="0.273438"/><stop stop-opacity="1" stop-color="rgb(7.659912%, 29.524231%, 39.447021%)" offset="0.28125"/><stop stop-opacity="1" stop-color="rgb(7.575989%, 29.780579%, 39.775085%)" offset="0.289062"/><stop stop-opacity="1" stop-color="rgb(7.493591%, 30.036926%, 40.103149%)" offset="0.296875"/><stop stop-opacity="1" stop-color="rgb(7.411194%, 30.2948%, 40.431213%)" offset="0.304688"/><stop stop-opacity="1" stop-color="rgb(7.327271%, 30.551147%, 40.759277%)" offset="0.3125"/><stop stop-opacity="1" stop-color="rgb(7.244873%, 30.809021%, 41.087341%)" offset="0.320312"/><stop stop-opacity="1" stop-color="rgb(7.162476%, 31.065369%, 41.415405%)" offset="0.328125"/><stop stop-opacity="1" stop-color="rgb(7.080078%, 31.323242%, 41.743469%)" offset="0.335938"/><stop stop-opacity="1" stop-color="rgb(6.996155%, 31.57959%, 42.071533%)" offset="0.34375"/><stop stop-opacity="1" stop-color="rgb(6.913757%, 31.837463%, 42.399597%)" offset="0.351562"/><stop stop-opacity="1" stop-color="rgb(6.83136%, 32.093811%, 42.727661%)" offset="0.359375"/><stop stop-opacity="1" stop-color="rgb(6.748962%, 32.350159%, 43.055725%)" offset="0.367187"/><stop stop-opacity="1" stop-color="rgb(6.665039%, 32.608032%, 43.383789%)" offset="0.375"/><stop stop-opacity="1" stop-color="rgb(6.582642%, 32.86438%, 43.711853%)" offset="0.382813"/><stop stop-opacity="1" stop-color="rgb(6.500244%, 33.122253%, 44.041443%)" offset="0.390625"/><stop stop-opacity="1" stop-color="rgb(6.416321%, 33.378601%, 44.369507%)" offset="0.398438"/><stop stop-opacity="1" stop-color="rgb(6.333923%, 33.636475%, 44.697571%)" offset="0.40625"/><stop stop-opacity="1" stop-color="rgb(6.251526%, 33.892822%, 45.025635%)" offset="0.414062"/><stop stop-opacity="1" stop-color="rgb(6.169128%, 34.150696%, 45.353699%)" offset="0.421875"/><stop stop-opacity="1" stop-color="rgb(6.085205%, 34.407043%, 45.681763%)" offset="0.429688"/><stop stop-opacity="1" stop-color="rgb(6.002808%, 34.664917%, 46.009827%)" offset="0.4375"/><stop stop-opacity="1" stop-color="rgb(5.92041%, 34.921265%, 46.337891%)" offset="0.445312"/><stop stop-opacity="1" stop-color="rgb(5.838013%, 35.177612%, 46.665955%)" offset="0.453125"/><stop stop-opacity="1" stop-color="rgb(5.754089%, 35.435486%, 46.994019%)" offset="0.460938"/><stop stop-opacity="1" stop-color="rgb(5.671692%, 35.691833%, 47.322083%)" offset="0.46875"/><stop stop-opacity="1" stop-color="rgb(5.589294%, 35.949707%, 47.650146%)" offset="0.476562"/><stop stop-opacity="1" stop-color="rgb(5.505371%, 36.206055%, 47.97821%)" offset="0.484375"/><stop stop-opacity="1" stop-color="rgb(5.422974%, 36.463928%, 48.306274%)" offset="0.492188"/><stop stop-opacity="1" stop-color="rgb(5.340576%, 36.720276%, 48.634338%)" offset="0.5"/><stop stop-opacity="1" stop-color="rgb(5.258179%, 36.978149%, 48.962402%)" offset="0.507812"/><stop stop-opacity="1" stop-color="rgb(5.174255%, 37.234497%, 49.290466%)" offset="0.515625"/><stop stop-opacity="1" stop-color="rgb(5.091858%, 37.490845%, 49.61853%)" offset="0.523438"/><stop stop-opacity="1" stop-color="rgb(5.00946%, 37.748718%, 49.946594%)" offset="0.53125"/><stop stop-opacity="1" stop-color="rgb(4.927063%, 38.005066%, 50.274658%)" offset="0.539062"/><stop stop-opacity="1" stop-color="rgb(4.84314%, 38.262939%, 50.602722%)" offset="0.546875"/><stop stop-opacity="1" stop-color="rgb(4.760742%, 38.519287%, 50.930786%)" offset="0.554688"/><stop stop-opacity="1" stop-color="rgb(4.678345%, 38.777161%, 51.25885%)" offset="0.5625"/><stop stop-opacity="1" stop-color="rgb(4.594421%, 39.033508%, 51.586914%)" offset="0.570312"/><stop stop-opacity="1" stop-color="rgb(4.512024%, 39.291382%, 51.916504%)" offset="0.578125"/><stop stop-opacity="1" stop-color="rgb(4.429626%, 39.547729%, 52.244568%)" offset="0.585938"/><stop stop-opacity="1" stop-color="rgb(4.347229%, 39.804077%, 52.572632%)" offset="0.59375"/><stop stop-opacity="1" stop-color="rgb(4.263306%, 40.061951%, 52.900696%)" offset="0.601562"/><stop stop-opacity="1" stop-color="rgb(4.180908%, 40.318298%, 53.22876%)" offset="0.609375"/><stop stop-opacity="1" stop-color="rgb(4.098511%, 40.576172%, 53.556824%)" offset="0.617188"/><stop stop-opacity="1" stop-color="rgb(4.016113%, 40.83252%, 53.884888%)" offset="0.625"/><stop stop-opacity="1" stop-color="rgb(3.93219%, 41.090393%, 54.212952%)" offset="0.632812"/><stop stop-opacity="1" stop-color="rgb(3.849792%, 41.346741%, 54.541016%)" offset="0.640625"/><stop stop-opacity="1" stop-color="rgb(3.767395%, 41.604614%, 54.86908%)" offset="0.648438"/><stop stop-opacity="1" stop-color="rgb(3.683472%, 41.860962%, 55.197144%)" offset="0.65625"/><stop stop-opacity="1" stop-color="rgb(3.601074%, 42.118835%, 55.525208%)" offset="0.664062"/><stop stop-opacity="1" stop-color="rgb(3.518677%, 42.375183%, 55.853271%)" offset="0.671875"/><stop stop-opacity="1" stop-color="rgb(3.436279%, 42.631531%, 56.181335%)" offset="0.679688"/><stop stop-opacity="1" stop-color="rgb(3.352356%, 42.889404%, 56.509399%)" offset="0.6875"/><stop stop-opacity="1" stop-color="rgb(3.269958%, 43.145752%, 56.837463%)" offset="0.695313"/><stop stop-opacity="1" stop-color="rgb(3.187561%, 43.403625%, 57.165527%)" offset="0.703125"/><stop stop-opacity="1" stop-color="rgb(3.105164%, 43.659973%, 57.493591%)" offset="0.710938"/><stop stop-opacity="1" stop-color="rgb(3.02124%, 43.917847%, 57.821655%)" offset="0.71875"/><stop stop-opacity="1" stop-color="rgb(2.938843%, 44.174194%, 58.149719%)" offset="0.726562"/><stop stop-opacity="1" stop-color="rgb(2.856445%, 44.432068%, 58.477783%)" offset="0.734375"/><stop stop-opacity="1" stop-color="rgb(2.772522%, 44.688416%, 58.805847%)" offset="0.742188"/><stop stop-opacity="1" stop-color="rgb(2.690125%, 44.944763%, 59.133911%)" offset="0.75"/><stop stop-opacity="1" stop-color="rgb(2.607727%, 45.202637%, 59.461975%)" offset="0.757812"/><stop stop-opacity="1" stop-color="rgb(2.52533%, 45.458984%, 59.790039%)" offset="0.765625"/><stop stop-opacity="1" stop-color="rgb(2.441406%, 45.716858%, 60.119629%)" offset="0.773438"/><stop stop-opacity="1" stop-color="rgb(2.359009%, 45.973206%, 60.447693%)" offset="0.78125"/><stop stop-opacity="1" stop-color="rgb(2.276611%, 46.231079%, 60.775757%)" offset="0.789062"/><stop stop-opacity="1" stop-color="rgb(2.194214%, 46.487427%, 61.103821%)" offset="0.796875"/><stop stop-opacity="1" stop-color="rgb(2.110291%, 46.7453%, 61.431885%)" offset="0.804687"/><stop stop-opacity="1" stop-color="rgb(2.027893%, 47.001648%, 61.759949%)" offset="0.8125"/><stop stop-opacity="1" stop-color="rgb(1.945496%, 47.257996%, 62.088013%)" offset="0.820312"/><stop stop-opacity="1" stop-color="rgb(1.861572%, 47.515869%, 62.416077%)" offset="0.828125"/><stop stop-opacity="1" stop-color="rgb(1.779175%, 47.772217%, 62.744141%)" offset="0.835938"/><stop stop-opacity="1" stop-color="rgb(1.696777%, 48.03009%, 63.072205%)" offset="0.84375"/><stop stop-opacity="1" stop-color="rgb(1.61438%, 48.286438%, 63.400269%)" offset="0.851562"/><stop stop-opacity="1" stop-color="rgb(1.530457%, 48.544312%, 63.728333%)" offset="0.859375"/><stop stop-opacity="1" stop-color="rgb(1.448059%, 48.800659%, 64.056396%)" offset="0.867188"/><stop stop-opacity="1" stop-color="rgb(1.365662%, 49.058533%, 64.38446%)" offset="0.875"/><stop stop-opacity="1" stop-color="rgb(1.283264%, 49.31488%, 64.712524%)" offset="0.882812"/><stop stop-opacity="1" stop-color="rgb(1.199341%, 49.572754%, 65.040588%)" offset="0.890625"/><stop stop-opacity="1" stop-color="rgb(1.116943%, 49.829102%, 65.368652%)" offset="0.898438"/><stop stop-opacity="1" stop-color="rgb(1.034546%, 50.085449%, 65.696716%)" offset="0.90625"/><stop stop-opacity="1" stop-color="rgb(0.950623%, 50.343323%, 66.02478%)" offset="0.914062"/><stop stop-opacity="1" stop-color="rgb(0.868225%, 50.59967%, 66.352844%)" offset="0.921875"/><stop stop-opacity="1" stop-color="rgb(0.785828%, 50.857544%, 66.680908%)" offset="0.929688"/><stop stop-opacity="1" stop-color="rgb(0.70343%, 51.113892%, 67.008972%)" offset="0.9375"/><stop stop-opacity="1" stop-color="rgb(0.619507%, 51.371765%, 67.337036%)" offset="0.945312"/><stop stop-opacity="1" stop-color="rgb(0.537109%, 51.628113%, 67.6651%)" offset="0.953125"/><stop stop-opacity="1" stop-color="rgb(0.454712%, 51.885986%, 67.993164%)" offset="0.960938"/><stop stop-opacity="1" stop-color="rgb(0.372314%, 52.142334%, 68.322754%)" offset="0.96875"/><stop stop-opacity="1" stop-color="rgb(0.288391%, 52.398682%, 68.650818%)" offset="0.976562"/><stop stop-opacity="1" stop-color="rgb(0.205994%, 52.656555%, 68.978882%)" offset="0.984375"/><stop stop-opacity="1" stop-color="rgb(0.123596%, 52.912903%, 69.306946%)" offset="0.992188"/><stop stop-opacity="1" stop-color="rgb(0.0411987%, 53.170776%, 69.63501%)" offset="1"/></linearGradient></defs><path fill="#a67b2c" d="M 33.132812 47.117188 C 33.398438 47.117188 33.628906 47.15625 33.824219 47.242188 C 34.019531 47.324219 34.226562 47.472656 34.449219 47.683594 L 34.945312 47.140625 C 34.464844 46.613281 33.867188 46.347656 33.148438 46.347656 C 32.433594 46.347656 31.839844 46.578125 31.367188 47.035156 C 30.898438 47.496094 30.664062 48.070312 30.664062 48.757812 C 30.664062 49.445312 30.894531 50.015625 31.355469 50.464844 C 31.816406 50.914062 32.398438 51.136719 33.09375 51.136719 C 33.792969 51.136719 34.390625 50.867188 34.878906 50.324219 L 34.375 49.808594 C 34.164062 50.007812 33.960938 50.152344 33.765625 50.242188 C 33.574219 50.332031 33.339844 50.378906 33.074219 50.378906 C 32.640625 50.378906 32.265625 50.21875 31.949219 49.90625 C 31.636719 49.589844 31.476562 49.195312 31.476562 48.726562 C 31.476562 48.257812 31.636719 47.871094 31.953125 47.570312 C 32.273438 47.265625 32.664062 47.117188 33.132812 47.117188 Z M 33.132812 47.117188 " fill-opacity="1" fill-rule="nonzero"/><path fill="#a67b2c" d="M 38.90625 49.023438 C 38.90625 49.445312 38.800781 49.78125 38.589844 50.027344 C 38.378906 50.273438 38.089844 50.398438 37.730469 50.398438 C 37.367188 50.398438 37.082031 50.273438 36.871094 50.027344 C 36.660156 49.78125 36.550781 49.445312 36.550781 49.023438 L 36.550781 46.460938 L 35.773438 46.460938 L 35.773438 49.054688 C 35.773438 49.71875 35.953125 50.234375 36.320312 50.59375 C 36.6875 50.953125 37.15625 51.132812 37.730469 51.132812 C 38.304688 51.132812 38.773438 50.953125 39.140625 50.59375 C 39.503906 50.234375 39.6875 49.71875 39.6875 49.054688 L 39.6875 46.460938 L 38.90625 46.460938 Z M 38.90625 49.023438 " fill-opacity="1" fill-rule="nonzero"/><path fill="#a67b2c" d="M 43.753906 48.863281 C 43.515625 48.65625 43.15625 48.496094 42.683594 48.378906 C 42.207031 48.265625 41.898438 48.15625 41.753906 48.058594 C 41.609375 47.960938 41.535156 47.816406 41.535156 47.628906 C 41.535156 47.441406 41.609375 47.300781 41.753906 47.207031 C 41.898438 47.117188 42.085938 47.070312 42.3125 47.070312 C 42.539062 47.070312 42.769531 47.109375 43.003906 47.1875 C 43.238281 47.269531 43.421875 47.371094 43.558594 47.492188 L 43.976562 46.902344 C 43.765625 46.726562 43.511719 46.589844 43.222656 46.492188 C 42.929688 46.398438 42.636719 46.347656 42.34375 46.347656 C 41.882812 46.347656 41.5 46.464844 41.1875 46.695312 C 40.875 46.925781 40.722656 47.257812 40.722656 47.683594 C 40.722656 48.113281 40.859375 48.429688 41.132812 48.636719 C 41.269531 48.746094 41.425781 48.835938 41.601562 48.90625 C 41.777344 48.972656 42.035156 49.046875 42.375 49.128906 C 42.714844 49.210938 42.953125 49.304688 43.09375 49.402344 C 43.230469 49.5 43.300781 49.640625 43.300781 49.820312 C 43.300781 49.996094 43.226562 50.140625 43.078125 50.25 C 42.933594 50.355469 42.730469 50.410156 42.480469 50.410156 C 41.976562 50.410156 41.492188 50.207031 41.023438 49.800781 L 40.535156 50.390625 C 41.097656 50.890625 41.738281 51.136719 42.460938 51.136719 C 42.953125 51.136719 43.355469 51.011719 43.660156 50.761719 C 43.960938 50.511719 44.113281 50.183594 44.113281 49.777344 C 44.113281 49.375 43.996094 49.070312 43.753906 48.863281 Z M 43.753906 48.863281 " fill-opacity="1" fill-rule="nonzero"/><path fill="#a67b2c" d="M 44.644531 47.175781 L 46.046875 47.175781 L 46.046875 51.085938 L 46.828125 51.085938 L 46.828125 47.175781 L 48.230469 47.175781 L 48.230469 46.460938 L 44.644531 46.460938 Z M 44.644531 47.175781 " fill-opacity="1" fill-rule="nonzero"/><path fill="#a67b2c" d="M 51.089844 46.347656 C 50.402344 46.347656 49.824219 46.578125 49.355469 47.03125 C 48.886719 47.488281 48.652344 48.058594 48.652344 48.742188 C 48.652344 49.421875 48.886719 49.992188 49.355469 50.445312 C 49.824219 50.902344 50.402344 51.132812 51.089844 51.132812 C 51.777344 51.132812 52.355469 50.902344 52.820312 50.445312 C 53.289062 49.992188 53.523438 49.421875 53.523438 48.742188 C 53.523438 48.058594 53.289062 47.488281 52.820312 47.03125 C 52.355469 46.578125 51.777344 46.347656 51.089844 46.347656 Z M 52.25 49.925781 C 51.933594 50.253906 51.546875 50.417969 51.089844 50.417969 C 50.628906 50.417969 50.242188 50.253906 49.925781 49.925781 C 49.613281 49.601562 49.453125 49.207031 49.453125 48.742188 C 49.453125 48.273438 49.613281 47.878906 49.925781 47.550781 C 50.242188 47.226562 50.628906 47.0625 51.089844 47.0625 C 51.546875 47.0625 51.933594 47.226562 52.25 47.550781 C 52.566406 47.878906 52.722656 48.273438 52.722656 48.742188 C 52.722656 49.207031 52.566406 49.601562 52.25 49.925781 Z M 52.25 49.925781 " fill-opacity="1" fill-rule="nonzero"/><path fill="#a67b2c" d="M 57.121094 49.363281 L 55.726562 46.460938 L 54.507812 46.460938 L 54.507812 51.085938 L 55.289062 51.085938 L 55.289062 47.472656 L 56.898438 50.683594 L 57.335938 50.683594 L 58.949219 47.472656 L 58.949219 51.085938 L 59.730469 51.085938 L 59.730469 46.460938 L 58.519531 46.460938 Z M 57.121094 49.363281 " fill-opacity="1" fill-rule="nonzero"/><path fill="#a67b2c" d="M 63.855469 48.863281 C 63.613281 48.65625 63.257812 48.496094 62.78125 48.378906 C 62.308594 48.265625 62 48.15625 61.851562 48.058594 C 61.707031 47.960938 61.636719 47.816406 61.636719 47.628906 C 61.636719 47.441406 61.707031 47.300781 61.851562 47.207031 C 62 47.117188 62.183594 47.070312 62.414062 47.070312 C 62.640625 47.070312 62.871094 47.109375 63.105469 47.1875 C 63.335938 47.269531 63.523438 47.371094 63.660156 47.492188 L 64.078125 46.902344 C 63.863281 46.726562 63.613281 46.589844 63.320312 46.492188 C 63.03125 46.398438 62.738281 46.347656 62.441406 46.347656 C 61.984375 46.347656 61.597656 46.464844 61.289062 46.695312 C 60.976562 46.925781 60.820312 47.257812 60.820312 47.683594 C 60.820312 48.113281 60.957031 48.429688 61.230469 48.636719 C 61.367188 48.746094 61.523438 48.835938 61.699219 48.90625 C 61.878906 48.972656 62.136719 49.046875 62.476562 49.128906 C 62.816406 49.210938 63.054688 49.304688 63.191406 49.402344 C 63.332031 49.5 63.402344 49.640625 63.402344 49.820312 C 63.402344 49.996094 63.328125 50.140625 63.179688 50.25 C 63.03125 50.355469 62.832031 50.410156 62.582031 50.410156 C 62.078125 50.410156 61.59375 50.207031 61.125 49.800781 L 60.636719 50.390625 C 61.195312 50.890625 61.835938 51.136719 62.5625 51.136719 C 63.054688 51.136719 63.453125 51.011719 63.757812 50.761719 C 64.0625 50.511719 64.214844 50.183594 64.214844 49.777344 C 64.214844 49.375 64.09375 49.070312 63.855469 48.863281 Z M 63.855469 48.863281 " fill-opacity="1" fill-rule="nonzero"/><path fill="#a67b2c" d="M 69.746094 48.683594 C 69.824219 48.648438 69.882812 48.625 69.910156 48.609375 C 69.941406 48.59375 70 48.554688 70.085938 48.492188 C 70.3125 48.316406 70.429688 48.046875 70.429688 47.683594 C 70.429688 47.386719 70.320312 47.117188 70.109375 46.878906 C 70 46.75 69.832031 46.648438 69.605469 46.574219 C 69.378906 46.5 69.105469 46.460938 68.792969 46.460938 L 66.992188 46.460938 L 66.992188 51.085938 L 69.019531 51.085938 C 69.648438 51.085938 70.09375 50.941406 70.355469 50.65625 C 70.574219 50.410156 70.6875 50.125 70.6875 49.800781 C 70.6875 49.511719 70.601562 49.265625 70.429688 49.070312 C 70.261719 48.875 70.03125 48.746094 69.746094 48.683594 Z M 67.773438 47.183594 L 68.773438 47.183594 C 69.0625 47.183594 69.273438 47.230469 69.410156 47.328125 C 69.546875 47.425781 69.613281 47.582031 69.613281 47.804688 C 69.613281 48.1875 69.332031 48.378906 68.765625 48.378906 L 67.773438 48.378906 Z M 69.65625 50.230469 C 69.503906 50.320312 69.285156 50.363281 69 50.363281 L 67.773438 50.363281 L 67.773438 49.101562 L 68.898438 49.101562 C 69.558594 49.101562 69.886719 49.304688 69.886719 49.714844 C 69.886719 49.96875 69.808594 50.136719 69.65625 50.230469 Z M 69.65625 50.230469 " fill-opacity="1" fill-rule="nonzero"/><path fill="#a67b2c" d="M 75.355469 47.960938 C 75.355469 47.4375 75.203125 47.054688 74.902344 46.816406 C 74.597656 46.578125 74.089844 46.460938 73.386719 46.460938 L 71.664062 46.460938 L 71.664062 51.085938 L 72.445312 51.085938 L 72.445312 49.53125 L 73.472656 49.53125 L 74.578125 51.085938 L 75.570312 51.085938 L 74.359375 49.40625 C 75.023438 49.207031 75.355469 48.726562 75.355469 47.960938 Z M 73.417969 48.824219 L 72.445312 48.824219 L 72.445312 47.167969 L 73.4375 47.167969 C 73.855469 47.167969 74.148438 47.226562 74.3125 47.335938 C 74.476562 47.449219 74.554688 47.65625 74.554688 47.960938 C 74.554688 48.261719 74.476562 48.480469 74.320312 48.617188 C 74.160156 48.753906 73.859375 48.824219 73.417969 48.824219 Z M 73.417969 48.824219 " fill-opacity="1" fill-rule="nonzero"/><path fill="#a67b2c" d="M 78.617188 46.347656 C 77.929688 46.347656 77.351562 46.578125 76.886719 47.03125 C 76.417969 47.488281 76.183594 48.058594 76.183594 48.742188 C 76.183594 49.421875 76.417969 49.992188 76.886719 50.445312 C 77.351562 50.902344 77.929688 51.132812 78.617188 51.132812 C 79.308594 51.132812 79.886719 50.902344 80.351562 50.445312 C 80.820312 49.992188 81.054688 49.421875 81.054688 48.742188 C 81.054688 48.058594 80.820312 47.488281 80.351562 47.03125 C 79.886719 46.578125 79.308594 46.347656 78.617188 46.347656 Z M 79.78125 49.925781 C 79.464844 50.253906 79.078125 50.417969 78.621094 50.417969 C 78.160156 50.417969 77.773438 50.253906 77.457031 49.925781 C 77.140625 49.601562 76.984375 49.207031 76.984375 48.742188 C 76.984375 48.273438 77.140625 47.878906 77.457031 47.550781 C 77.773438 47.226562 78.160156 47.0625 78.621094 47.0625 C 79.078125 47.0625 79.464844 47.226562 79.78125 47.550781 C 80.09375 47.878906 80.253906 48.273438 80.253906 48.742188 C 80.253906 49.207031 80.09375 49.601562 79.78125 49.925781 Z M 79.78125 49.925781 " fill-opacity="1" fill-rule="nonzero"/><path fill="#a67b2c" d="M 85.929688 46.460938 L 84.9375 46.460938 L 82.820312 48.71875 L 82.820312 46.460938 L 82.039062 46.460938 L 82.039062 51.085938 L 82.820312 51.085938 L 82.820312 49.789062 L 83.496094 49.0625 L 85.03125 51.085938 L 85.957031 51.085938 L 84.070312 48.484375 Z M 85.929688 46.460938 " fill-opacity="1" fill-rule="nonzero"/><path fill="#a67b2c" d="M 87.476562 49.113281 L 89.695312 49.113281 L 89.695312 48.417969 L 87.476562 48.417969 L 87.476562 47.195312 L 89.945312 47.195312 L 89.945312 46.460938 L 86.699219 46.460938 L 86.699219 51.085938 L 90.027344 51.085938 L 90.027344 50.351562 L 87.476562 50.351562 Z M 87.476562 49.113281 " fill-opacity="1" fill-rule="nonzero"/><path fill="#a67b2c" d="M 94.714844 47.960938 C 94.714844 47.4375 94.5625 47.054688 94.261719 46.816406 C 93.957031 46.578125 93.449219 46.460938 92.746094 46.460938 L 91.023438 46.460938 L 91.023438 51.085938 L 91.804688 51.085938 L 91.804688 49.53125 L 92.832031 49.53125 L 93.933594 51.085938 L 94.929688 51.085938 L 93.71875 49.40625 C 94.382812 49.207031 94.714844 48.726562 94.714844 47.960938 Z M 92.777344 48.824219 L 91.804688 48.824219 L 91.804688 47.167969 L 92.796875 47.167969 C 93.214844 47.167969 93.507812 47.226562 93.671875 47.335938 C 93.835938 47.449219 93.914062 47.65625 93.914062 47.960938 C 93.914062 48.261719 93.835938 48.480469 93.675781 48.617188 C 93.519531 48.753906 93.21875 48.824219 92.777344 48.824219 Z M 92.777344 48.824219 " fill-opacity="1" fill-rule="nonzero"/><path fill="#a67b2c" d="M 97.238281 46.460938 L 95.199219 51.085938 L 96.03125 51.085938 L 96.496094 50.035156 L 98.8125 50.035156 L 99.273438 51.085938 L 100.109375 51.085938 L 98.070312 46.460938 Z M 96.8125 49.3125 L 97.652344 47.40625 L 98.496094 49.3125 Z M 96.8125 49.3125 " fill-opacity="1" fill-rule="nonzero"/><path fill="#a67b2c" d="M 103.953125 50.105469 C 103.65625 50.296875 103.289062 50.390625 102.851562 50.390625 C 102.414062 50.390625 102.039062 50.242188 101.730469 49.945312 C 101.421875 49.644531 101.265625 49.253906 101.265625 48.761719 C 101.265625 48.269531 101.425781 47.871094 101.742188 47.570312 C 102.058594 47.265625 102.453125 47.117188 102.921875 47.117188 C 103.164062 47.117188 103.375 47.144531 103.558594 47.207031 C 103.742188 47.265625 103.925781 47.371094 104.105469 47.527344 L 104.523438 46.929688 C 104.082031 46.542969 103.527344 46.347656 102.859375 46.347656 C 102.195312 46.347656 101.628906 46.578125 101.15625 47.035156 C 100.6875 47.496094 100.453125 48.070312 100.453125 48.757812 C 100.453125 49.445312 100.683594 50.015625 101.144531 50.464844 C 101.605469 50.914062 102.175781 51.136719 102.859375 51.136719 C 103.671875 51.136719 104.296875 50.898438 104.734375 50.417969 L 104.734375 48.835938 L 103.953125 48.835938 Z M 103.953125 50.105469 " fill-opacity="1" fill-rule="nonzero"/><path fill="#a67b2c" d="M 106.539062 49.113281 L 108.757812 49.113281 L 108.757812 48.417969 L 106.539062 48.417969 L 106.539062 47.195312 L 109.007812 47.195312 L 109.007812 46.460938 L 105.757812 46.460938 L 105.757812 51.085938 L 109.085938 51.085938 L 109.085938 50.351562 L 106.539062 50.351562 Z M 106.539062 49.113281 " fill-opacity="1" fill-rule="nonzero"/><g clip-path="url(#c7e29d439f)"><g clip-path="url(#4b60d9e735)"><path fill="url(#9bc520ca41)" d="M 2.441406 1.203125 L 2.441406 41.9375 L 75.203125 41.9375 L 75.203125 1.203125 Z M 2.441406 1.203125 " fill-rule="nonzero"/></g></g><path fill="#0088b2" d="M 53.90625 24.8125 C 54.8125 24.269531 55.785156 24 56.828125 24 C 57.605469 24 58.382812 24.148438 59.167969 24.449219 C 59.953125 24.75 60.640625 25.132812 61.21875 25.597656 L 64.480469 21.171875 C 63.449219 20.300781 62.277344 19.625 60.96875 19.148438 C 59.664062 18.667969 58.28125 18.429688 56.828125 18.429688 C 54.632812 18.429688 52.636719 18.949219 50.839844 19.988281 C 49.042969 21.027344 47.625 22.445312 46.585938 24.242188 C 45.546875 26.039062 45.027344 28.011719 45.027344 30.164062 C 45.027344 32.316406 45.546875 34.292969 46.585938 36.089844 C 47.625 37.886719 49.046875 39.3125 50.847656 40.367188 C 52.652344 41.421875 54.644531 41.949219 56.828125 41.949219 C 58.28125 41.949219 59.664062 41.710938 60.96875 41.230469 C 62.277344 40.75 63.449219 40.070312 64.480469 39.1875 L 61.269531 34.734375 C 60.484375 35.335938 59.757812 35.761719 59.089844 36.007812 C 58.421875 36.257812 57.667969 36.378906 56.828125 36.378906 C 55.796875 36.378906 54.824219 36.105469 53.914062 35.554688 C 53.003906 35.007812 52.28125 34.261719 51.734375 33.3125 C 51.191406 32.367188 50.921875 31.320312 50.921875 30.179688 C 50.921875 29.039062 51.191406 27.996094 51.734375 27.050781 C 52.28125 26.101562 53.003906 25.355469 53.90625 24.8125 Z M 53.90625 24.8125 " fill-opacity="1" fill-rule="nonzero"/><path fill="#0088b2" d="M 71.910156 18.429688 L 65.882812 18.429688 L 65.882812 41.949219 L 81.558594 41.949219 L 81.558594 37.140625 L 71.910156 37.140625 Z M 71.910156 18.429688 " fill-opacity="1" fill-rule="nonzero"/><path fill="#1b3447" d="M 82.960938 18.640625 L 82.960938 22.863281 L 97.910156 22.863281 L 98.839844 18.640625 Z M 82.960938 18.640625 " fill-opacity="1" fill-rule="nonzero"/><path fill="#1b3447" d="M 82.964844 30.230469 L 96.261719 30.230469 L 97.191406 26.015625 L 82.964844 26.015625 Z M 82.964844 30.230469 " fill-opacity="1" fill-rule="nonzero"/><path fill="#1b3447" d="M 109.101562 41.949219 L 109.097656 41.941406 L 105.488281 33.761719 L 111.976562 26.007812 L 107.625 26.007812 L 103.4375 31.417969 L 101.390625 26.007812 L 97.191406 26.007812 L 100.664062 33.761719 L 94.789062 40.699219 L 93.746094 41.9375 L 93.894531 41.195312 L 94.691406 37.1875 L 82.960938 37.1875 L 82.960938 41.949219 L 98.046875 41.949219 L 102.640625 36.128906 L 104.917969 41.949219 Z M 109.101562 41.949219 " fill-opacity="1" fill-rule="nonzero"/><path fill="#a67b2c" d="M 82.960938 31.691406 L 97.433594 31.691406 L 97.503906 31.375 L 97.664062 30.636719 L 98.957031 33.519531 L 96.28125 36.675781 L 96.378906 36.199219 L 96.472656 35.726562 L 82.960938 35.726562 L 82.960938 36.125 L 95.988281 36.125 L 95.734375 37.390625 L 95.589844 38.113281 L 99.421875 33.585938 L 97.535156 29.375 L 97.296875 30.457031 L 97.113281 31.292969 L 82.960938 31.292969 Z M 82.960938 31.691406 " fill-opacity="1" fill-rule="nonzero"/></svg>